<?xml version="1.0" encoding="UTF-8" standalone="no"?>
<!-- Created with Inkscape (http://www.inkscape.org/) -->

<svg
   width="414"
   height="120"
   viewBox="0 0 109.5375 31.75"
   version="1.1"
   id="svg1"
   inkscape:version="1.4 (86a8ad7, 2024-10-11)"
   sodipodi:docname="login.svg"
   xml:space="preserve"
   inkscape:export-filename="..\login.png"
   inkscape:export-xdpi="96"
   inkscape:export-ydpi="96"
   xmlns:inkscape="http://www.inkscape.org/namespaces/inkscape"
   xmlns:sodipodi="http://sodipodi.sourceforge.net/DTD/sodipodi-0.dtd"
   xmlns:xlink="http://www.w3.org/1999/xlink"
   xmlns="http://www.w3.org/2000/svg"
   xmlns:svg="http://www.w3.org/2000/svg"><sodipodi:namedview
     id="namedview1"
     pagecolor="#ffffff"
     bordercolor="#000000"
     borderopacity="0.25"
     inkscape:showpageshadow="2"
     inkscape:pageopacity="0.0"
     inkscape:pagecheckerboard="0"
     inkscape:deskcolor="#d1d1d1"
     inkscape:document-units="mm"
     inkscape:zoom="2.0334082"
     inkscape:cx="160.81375"
     inkscape:cy="125.65111"
     inkscape:window-width="1920"
     inkscape:window-height="1009"
     inkscape:window-x="1912"
     inkscape:window-y="-8"
     inkscape:window-maximized="1"
     inkscape:current-layer="layer1" /><defs
     id="defs1"><linearGradient
       id="linearGradient2"
       inkscape:collect="always"><stop
         style="stop-color:#009aff;stop-opacity:1;"
         offset="0"
         id="stop2" /><stop
         style="stop-color:#0076ff;stop-opacity:0;"
         offset="1"
         id="stop3" /></linearGradient><rect
       x="-24.097474"
       y="-23.113904"
       width="457.852"
       height="218.35262"
       id="rect2" /><filter
       id="filter3737"
       inkscape:collect="always"
       color-interpolation-filters="sRGB"
       x="-0.027446644"
       y="-0.010275643"
       width="1.0548933"
       height="1.0205513"><feGaussianBlur
         id="feGaussianBlur3739"
         stdDeviation="3.8997738"
         inkscape:collect="always" /></filter><linearGradient
       inkscape:collect="always"
       xlink:href="#linearGradient2"
       id="linearGradient3"
       x1="1.1710635"
       y1="15.484061"
       x2="109.03902"
       y2="15.744298"
       gradientUnits="userSpaceOnUse" /></defs><g
     inkscape:label="Camada 1"
     inkscape:groupmode="layer"
     id="layer1"><rect
       style="fill:url(#linearGradient3);stroke-width:0.104497;fill-opacity:1"
       id="rect1"
       width="109.5375"
       height="31.75"
       x="0.0054974807"
       y="0.0062164273" /><g
       id="layer1-0"
       inkscape:label="Ebene 1"
       transform="matrix(0.01653646,0,0,0.01653646,7.2560412,7.1788409)"><path
         id="path2890-1"
         inkscape:connector-curvature="0"
         sodipodi:nodetypes="csccssssscccssscccccsssscccsssscccsssczcczccccccsssssscccccssscccccccccssssssccccssscccccscsssccccssccccccccccccccc"
         style="fill:#666666;filter:url(#filter3737)"
         d="m 406.02,71.653 c -23.503,0 -42.573,19.421 -42.573,43.359 0,17.138 9.7823,31.94 23.955,38.973 v 17.004 c 0,16.057 -0.40044,21.215 -1.6549,21.224 -0.9102,0.007 -9.4,0.89033 -18.866,1.9859 -34.425,3.9842 -67.38,10.755 -80.967,16.632 -3.534,1.5287 -13.86,4.2075 -22.962,5.9577 -20.047,3.855 -30.356,8.675 -41.001,19.156 -16.991,16.73 -25.996,36.176 -28.299,61.232 l -0.57922,6.3301 6.1232,-0.82746 c 3.3729,-0.45603 12.87,-2.5723 21.1,-4.7165 28.75,-7.4904 51.927,-20.316 61.356,-33.967 2.5768,-3.7308 12.347,-7.2478 30.368,-10.922 15.502,-3.1611 46.125,-7.2927 64.128,-8.647 l 11.915,-0.9102 -0.33098,42.076 -0.28961,42.035 -9.6399,5.5026 c -42.469,24.23 -59.246,45.431 -59.246,74.844 0,26.929 14.366,48.31 46.71,69.383 8.5997,5.6027 17.089,10.858 18.866,11.667 2.0716,0.9439 3.255,2.606 3.2685,4.5924 0.0119,1.7035 0.0282,20.488 0.0413,41.787 l 0.0413,38.725 -5.0061,0.91021 c -19.143,3.3481 -36.608,17.06 -45.138,35.457 -4.1041,8.8509 -5.5462,29.026 -2.9375,40.877 2.3299,10.584 9.5102,25.021 18.659,37.36 7.8566,10.596 30.763,34.34 33.098,34.34 0.75122,0 1.2412,19.063 1.2412,48.2 v 48.2 l -5.2544,8.6056 c -6.5161,10.726 -10.091,21.258 -8.4815,24.865 1.1315,2.5358 1.3786,2.4833 7.4472,-1.3653 3.456,-2.1917 6.2971,-3.5503 6.3301,-3.0202 0.033,0.53009 0.023,10.335 -0.0413,21.804 l -0.12405,20.852 c -0.16736,28.13 7.1933,56.268 13.281,83.946 3.3058,9.6793 13.15,9.8238 16.011,0 5.7738,-27.988 10.477,-55.863 10.509,-83.946 l 0.0413,-36.781 v -36.822 l 12.536,-12.867 c 41.379,-42.47 41.283,-65.858 -0.41373,-98.22 l -11.957,-9.2676 -0.0828,-36.077 c -0.05,-19.843 -0.49878,-36.839 0,-37.07 1.9013,-0.88047 3.3938,-1.4774 6.2887,-2.441 17.621,-5.8657 40.117,-15.866 49.606,-26.189 7.8778,-8.5706 14.997,-24.646 16.673,-37.608 3.8129,-29.483 -6.7467,-54.324 -32.271,-75.754 -5.0972,-4.2796 -13.42,-11.719 -18.452,-16.549 -5.0327,-4.8302 -12.053,-10.429 -15.598,-12.453 l -6.4128,-3.6822 -0.28961,-39.718 -0.28961,-39.718 19.197,-7.654 c 54.873,-21.875 75.271,-37.509 84.773,-64.997 9.8436,-28.475 -0.72511,-63.298 -25.486,-83.987 -9.4789,-7.9204 -28.363,-17.277 -41.414,-20.521 -5.0972,-1.2669 -15.469,-2.5104 -23.003,-2.772 l -13.694,-0.49648 0.20686,-19.859 0.12405,-17.128 c 12.781,-7.4781 21.39,-21.477 21.39,-37.567 l -0.33098,-5.544 c -2.74,-21.644 -20.81,-37.837 -42.21,-37.837 h 1.3e-4 z m -161.44,165 c 1.1208,0.0189 1.4212,0.68047 1.8618,2.0686 0.46827,1.4744 0.46666,4.7114 0,7.1989 -0.65672,3.5006 -1.9489,5.1141 -5.7922,7.0748 -6.7025,3.4194 -14.77,4.9139 -14.77,2.7306 0,-3.6745 3.1622,-11.974 5.3371,-13.943 1.2757,-1.1545 5.0465,-2.934 8.3574,-3.9304 2.1376,-0.64333 3.5267,-1.0491 4.4683,-1.1584 0.19617,-0.0228 0.37775,-0.0441 0.53785,-0.0413 v -6e-5 z m 182.54,6.3714 10.261,1.0757 c 20.077,2.0984 35.062,8.6483 39.511,17.253 1.1923,2.3056 2.2684,7.3042 2.3583,11.129 0.15075,6.4146 -0.28106,7.3588 -5.1303,12.329 -2.8917,2.964 -10.012,8.1138 -15.846,11.419 -5.8336,3.3051 -15.237,8.0164 -20.893,10.467 l -10.261,4.4683 z m -40.09,147.29 c 0.25676,1.1e-4 0.40544,0.13474 0.41373,0.41373 0.0228,0.76523 0.06,9.4979 0.0827,19.404 0.0228,9.9061 -0.2216,18.219 -0.49647,18.494 -0.8899,0.88991 -9.886,-9.2491 -12.081,-13.612 -2.8199,-5.6048 -2.6874,-9.0966 0.53785,-14.315 2.5552,-4.1344 9.7457,-10.385 11.543,-10.385 z m 40.918,121.6 5.7095,5.9164 c 8.0604,8.2735 11.806,17.075 12.205,28.837 0.29012,8.5609 -0.0344,9.9252 -2.9375,13.033 -1.7836,1.9091 -4.7165,4.1994 -6.537,5.1303 -1.8204,0.93081 -4.6403,2.1111 -6.2473,2.6065 l -2.9375,0.91021 -0.37236,-24.369 c -0.21342,-13.398 -0.0391,-26.102 0.37236,-28.216 l 0.74472,-3.8477 z m -41.083,117.91 -0.33099,32.395 c -5.4331,-4.9444 -8.0927,-10.892 -10.881,-19.363 -0.34529,-3.8302 -2.7126,-10.709 11.212,-13.033 z m 44.807,116.67 c 5.4209,2.7145 5.494,5.3497 5.8336,9.0607 -1.4398,4.9599 -2.8628,7.0344 -5.6681,9.9295 l -0.16549,-18.99 z" /><path
         id="path2890"
         inkscape:connector-curvature="0"
         sodipodi:nodetypes="csccssssscccssscccccsssscccsssscccsssczcczccccccsssssscccccssscccccccccssssssccccssscccccscsssccccssccccccccccccccc"
         style="fill:#000000"
         d="m 396.45,60.691 c -23.503,0 -42.573,19.421 -42.573,43.359 0,17.138 9.7823,31.94 23.955,38.973 v 17.004 c 0,16.057 -0.40044,21.215 -1.6549,21.224 -0.9102,0.007 -9.4,0.89033 -18.866,1.9859 -34.425,3.9842 -67.38,10.755 -80.967,16.632 -3.534,1.5287 -13.86,4.2075 -22.962,5.9577 -20.047,3.855 -30.356,8.675 -41.001,19.156 -16.991,16.73 -25.996,36.176 -28.299,61.232 l -0.57922,6.3301 6.1232,-0.82746 c 3.3729,-0.45603 12.87,-2.5723 21.1,-4.7165 28.75,-7.4904 51.927,-20.316 61.356,-33.967 2.5768,-3.7308 12.347,-7.2478 30.368,-10.922 15.502,-3.1611 46.125,-7.2927 64.128,-8.647 l 11.915,-0.9102 -0.33098,42.076 -0.28961,42.035 -9.6399,5.5026 c -42.469,24.23 -59.246,45.431 -59.246,74.844 0,26.929 14.366,48.31 46.71,69.383 8.5997,5.6027 17.089,10.858 18.866,11.667 2.0716,0.9439 3.255,2.606 3.2685,4.5924 0.0119,1.7035 0.0282,20.488 0.0413,41.787 l 0.0413,38.725 -5.0061,0.91021 c -19.143,3.3481 -36.608,17.06 -45.138,35.457 -4.1041,8.8509 -5.5462,29.026 -2.9375,40.877 2.3299,10.584 9.5102,25.021 18.659,37.36 7.8566,10.596 30.763,34.34 33.098,34.34 0.75122,0 1.2412,19.063 1.2412,48.2 v 48.2 l -5.2544,8.6056 c -6.5161,10.726 -10.091,21.258 -8.4815,24.865 1.1315,2.5358 1.3786,2.4833 7.4472,-1.3653 3.456,-2.1917 6.2971,-3.5503 6.3301,-3.0202 0.033,0.53009 0.023,10.335 -0.0413,21.804 l -0.12405,20.852 c -0.16736,28.13 7.1933,56.268 13.281,83.946 3.3058,9.6793 13.15,9.8238 16.011,0 5.7738,-27.988 10.477,-55.863 10.509,-83.946 l 0.0413,-36.781 v -36.822 l 12.536,-12.867 c 41.379,-42.47 41.283,-65.858 -0.41373,-98.22 l -11.957,-9.2676 -0.0828,-36.077 c -0.05,-19.843 -0.49878,-36.839 0,-37.07 1.9013,-0.88047 3.3938,-1.4774 6.2887,-2.441 17.621,-5.8657 40.117,-15.866 49.606,-26.189 7.8778,-8.5706 14.997,-24.646 16.673,-37.608 3.8129,-29.483 -6.7467,-54.324 -32.271,-75.754 -5.0972,-4.2796 -13.42,-11.719 -18.452,-16.549 -5.0327,-4.8302 -12.053,-10.429 -15.598,-12.453 l -6.4128,-3.6822 -0.28961,-39.718 -0.28961,-39.718 19.197,-7.654 c 54.873,-21.875 75.271,-37.509 84.773,-64.997 9.8436,-28.475 -0.72511,-63.298 -25.486,-83.987 -9.4789,-7.9204 -28.363,-17.277 -41.414,-20.521 -5.0972,-1.2669 -15.469,-2.5104 -23.003,-2.772 l -13.694,-0.49648 0.20686,-19.859 0.12405,-17.128 c 12.781,-7.4781 21.39,-21.477 21.39,-37.567 l -0.33098,-5.544 c -2.73,-21.642 -20.79,-37.835 -42.2,-37.835 h 1.3e-4 z m -161.43,165 c 1.1208,0.0189 1.4212,0.68047 1.8618,2.0686 0.46827,1.4744 0.46666,4.7114 0,7.1989 -0.65672,3.5006 -1.9489,5.1141 -5.7922,7.0748 -6.7025,3.4194 -14.77,4.9139 -14.77,2.7306 0,-3.6745 3.1622,-11.974 5.3371,-13.943 1.2757,-1.1545 5.0465,-2.934 8.3574,-3.9304 2.1376,-0.64333 3.5267,-1.0491 4.4683,-1.1584 0.19617,-0.0228 0.37775,-0.0441 0.53785,-0.0413 v -6e-5 z m 182.54,6.3714 10.261,1.0757 c 20.077,2.0984 35.062,8.6483 39.511,17.253 1.1923,2.3056 2.2684,7.3042 2.3583,11.129 0.15075,6.4146 -0.28106,7.3588 -5.1303,12.329 -2.8917,2.964 -10.012,8.1138 -15.846,11.419 -5.8336,3.3051 -15.237,8.0164 -20.893,10.467 l -10.261,4.4683 z m -40.09,147.29 c 0.25676,1.1e-4 0.40544,0.13474 0.41373,0.41373 0.0228,0.76523 0.06,9.4979 0.0827,19.404 0.0228,9.9061 -0.2216,18.219 -0.49647,18.494 -0.8899,0.88991 -9.886,-9.2491 -12.081,-13.612 -2.8199,-5.6048 -2.6874,-9.0966 0.53785,-14.315 2.5552,-4.1344 9.7457,-10.385 11.543,-10.385 z m 40.918,121.6 5.7095,5.9164 c 8.0604,8.2735 11.806,17.075 12.205,28.837 0.29012,8.5609 -0.0344,9.9252 -2.9375,13.033 -1.7836,1.9091 -4.7165,4.1994 -6.537,5.1303 -1.8204,0.93081 -4.6403,2.1111 -6.2473,2.6065 l -2.9375,0.91021 -0.37236,-24.369 c -0.21342,-13.398 -0.0391,-26.102 0.37236,-28.216 l 0.74472,-3.8477 z m -41.083,117.91 -0.33099,32.395 c -5.4331,-4.9444 -8.0927,-10.892 -10.881,-19.363 -0.34529,-3.8302 -2.7126,-10.709 11.212,-13.033 z m 44.807,116.67 c 5.4209,2.7145 5.494,5.3497 5.8336,9.0607 -1.4398,4.9599 -2.8628,7.0344 -5.6681,9.9295 l -0.16549,-18.99 z" /></g><text
       xml:space="preserve"
       style="font-size:11.2889px;text-align:start;writing-mode:lr-tb;direction:ltr;text-anchor:start;fill:#000000;stroke-width:0.264583"
       x="24.359552"
       y="20.414967"
       id="text1"><tspan
         sodipodi:role="line"
         id="tspan1"
         style="font-size:11.2889px;fill:#000000;stroke-width:0.264583"
         x="24.359552"
         y="20.414967">Clínica médica</tspan></text><text
       xml:space="preserve"
       transform="scale(0.26458333)"
       id="text2"
       style="font-size:42.6667px;text-align:start;writing-mode:lr-tb;direction:ltr;white-space:pre;shape-inside:url(#rect2);display:inline;fill:#000000" /></g></svg>
